<svg class="" width="48" height="48" fill="currentColor" aria-hidden="true" focusable="false">
  <path fill-rule="evenodd" clip-rule="evenodd" d="M1.92017 7H22.0799L20.9261 22H3.07401L1.92017 7ZM4.07992 9L4.92607 20H19.074L19.9202 9H4.07992Z"></path>
  <path fill-rule="evenodd" clip-rule="evenodd" d="M12 4C10.067 4 8.5 5.567 8.5 7.5H6.5C6.5 4.46243 8.96243 2 12 2C15.0376 2 17.5 4.46243 17.5 7.5H15.5C15.5 5.567 13.933 4 12 4Z"></path>
  <path fill-rule="evenodd" clip-rule="evenodd" d="M6.5 11L6.5 8L8.5 8L8.5 11L6.5 11Z"></path>
  <path fill-rule="evenodd" clip-rule="evenodd" d="M15.5 11L15.5 8L17.5 8L17.5 11L15.5 11Z"></path>
</svg>